<?xml version="1.0" encoding="UTF-8" standalone="no" ?>
<svg viewBox="143.102 36.312 120 120" xmlns="http://www.w3.org/2000/svg">
	<path d="M 120 108 C 120 114.6 114.6 120 108 120 L 12 120 C 5.4 120 0 114.6 0 108 L 0 12 C 0 5.4 5.4 0 12 0 L 108 0 C 114.6 0 120 5.4 120 12 L 120 108 Z" id="Shape" style="fill: rgb(255, 255, 255);" transform="matrix(1, 0, 0, 1, 143.102341, 36.311653)"/>
	<path d="M 85.478 6.244 L 63.101 6.244 L 40.908 64.576 L 56.201 64.576 L 34.523 113.756 L 78.738 52.945 L 62.753 52.945 L 85.478 6.244 Z" id="Path-1" style="fill: rgb(32, 112, 172);" transform="matrix(1, 0, 0, 1, 143.102341, 36.311653)"/>
	<path d="M 103.128 13.614 L 96.818 13.614 C 95.136 13.614 93.663 15.086 93.663 16.77 L 93.663 31.495 C 93.663 33.389 92.611 34.23 91.139 32.968 C 90.507 32.127 89.876 31.495 89.034 30.865 C 78.517 20.346 63.79 15.928 48.644 18.873 C 43.385 19.925 38.336 22.028 33.918 24.974 C 21.085 33.389 13.723 47.062 13.513 61.788 C 13.302 73.148 17.72 84.508 25.715 92.712 C 34.129 101.547 45.489 106.386 57.69 106.386 C 68.419 106.386 78.517 102.6 86.51 95.868 C 87.983 94.606 87.983 92.501 86.72 91.239 L 82.304 86.822 C 81.251 85.771 79.358 85.56 78.095 86.611 C 70.523 92.922 60.214 95.446 49.906 92.922 C 47.172 92.291 44.437 91.03 41.912 89.556 C 29.921 82.193 24.242 68.309 27.607 54.425 C 28.239 51.691 29.501 48.956 30.974 46.43 C 36.864 36.123 47.172 30.443 58.11 30.443 C 66.525 30.443 74.519 33.809 80.409 39.7 C 81.461 40.542 82.304 41.592 82.933 42.645 C 83.565 44.327 82.093 45.169 80.199 45.169 L 65.474 45.169 C 63.79 45.169 62.318 46.641 62.318 48.325 L 62.318 54.847 C 62.318 56.529 63.58 57.792 65.264 57.792 L 103.76 57.792 C 105.234 57.792 106.495 56.529 106.495 55.056 L 106.495 16.77 C 106.285 15.086 104.812 13.614 103.128 13.614 Z" id="Path-1" style="fill: rgb(143, 194, 80);" transform="matrix(1, 0, 0, 1, 143.102341, 36.311653)"/>
	<path id="path-1" style="fill: rgb(32, 112, 172);" d="M 65.957 70.523 L 52.814 72.26 L 34.523 113.756 L 65.957 70.523 Z" transform="matrix(1, 0, 0, 1, 143.102341, 36.311653)"/>
</svg>